<svg width="118" height="50" viewBox="0 0 118 50" fill="none" xmlns="http://www.w3.org/2000/svg">
<path d="M43.7734 19.9576C42.4018 14.8387 39.0529 10.4743 34.4634 7.82453C29.8739 5.17479 24.4198 4.45674 19.3009 5.82835C14.182 7.19996 9.81757 10.5489 7.16783 15.1383C4.51809 19.7278 3.80004 25.1819 5.17165 30.3009L24.4725 25.1292L43.7734 19.9576Z" fill="#B2DAFF"/>
<path d="M41.123 20.8746C39.9571 16.5235 37.1105 12.8138 33.2095 10.5615C29.3084 8.30924 24.6724 7.6989 20.3213 8.86476C15.9703 10.0306 12.2605 12.8772 10.0083 16.7783C7.75598 20.6793 7.14564 25.3153 8.3115 29.6664L24.7172 25.2705L41.123 20.8746Z" fill="white"/>
<path d="M5.17165 30.3009C6.54325 35.4198 9.89216 39.7841 14.4816 42.4339C19.0711 45.0836 24.5252 45.8017 29.6442 44.4301C34.7631 43.0585 39.1274 39.7096 41.7772 35.1201C44.4269 30.5306 45.145 25.0765 43.7734 19.9576L24.4725 25.1292L5.17165 30.3009Z" fill="#0049BE"/>
<path d="M8.20807 29.2804C9.37394 33.6314 12.2205 37.3412 16.1216 39.5934C20.0226 41.8457 24.6586 42.4561 29.0097 41.2902C33.3608 40.1243 37.0705 37.2778 39.3228 33.3767C41.575 29.4756 42.1854 24.8396 41.0195 20.4886L24.6138 24.8845L8.20807 29.2804Z" fill="white"/>
<path d="M56.536 22.328C56.92 21.5173 57.528 20.8347 58.36 20.28C59.2133 19.704 60.216 19.416 61.368 19.416C62.392 19.416 63.3093 19.6507 64.12 20.12C64.952 20.5893 65.6027 21.368 66.072 22.456C66.584 21.4747 67.2987 20.728 68.216 20.216C69.1333 19.6827 70.136 19.416 71.224 19.416C72.2053 19.416 73.048 19.5867 73.752 19.928C74.456 20.248 75.0427 20.6853 75.512 21.24C75.9813 21.7947 76.3227 22.4453 76.536 23.192C76.7707 23.9387 76.888 24.7387 76.888 25.592V35H73.88V26.584C73.88 25.9653 73.8267 25.3787 73.72 24.824C73.6133 24.2693 73.432 23.7787 73.176 23.352C72.92 22.9253 72.5787 22.584 72.152 22.328C71.7253 22.072 71.1813 21.944 70.52 21.944C69.8373 21.944 69.2507 22.0933 68.76 22.392C68.2693 22.6693 67.864 23.0427 67.544 23.512C67.2453 23.96 67.0213 24.472 66.872 25.048C66.744 25.624 66.68 26.2107 66.68 26.808V35H63.672V25.976C63.672 25.3787 63.6187 24.8347 63.512 24.344C63.4053 23.8533 63.224 23.4373 62.968 23.096C62.712 22.7333 62.3813 22.456 61.976 22.264C61.5707 22.0507 61.0693 21.944 60.472 21.944C59.3627 21.944 58.4347 22.4027 57.688 23.32C56.9627 24.216 56.6 25.4213 56.6 26.936V35H53.592V23.096C53.592 22.6907 53.5813 22.168 53.56 21.528C53.5387 20.888 53.5067 20.3227 53.464 19.832H56.312C56.3547 20.216 56.3867 20.6533 56.408 21.144C56.4293 21.6133 56.44 22.008 56.44 22.328H56.536ZM97.327 27.384C97.327 28.5573 97.1137 29.6347 96.687 30.616C96.2817 31.5973 95.7057 32.4507 94.959 33.176C94.2337 33.88 93.3697 34.4347 92.367 34.84C91.3643 35.224 90.287 35.416 89.135 35.416C87.983 35.416 86.9057 35.224 85.903 34.84C84.9003 34.4347 84.0363 33.88 83.311 33.176C82.5857 32.4507 82.0097 31.5973 81.583 30.616C81.1777 29.6347 80.975 28.5573 80.975 27.384C80.975 26.2107 81.1777 25.144 81.583 24.184C82.0097 23.2027 82.5857 22.36 83.311 21.656C84.0363 20.952 84.9003 20.408 85.903 20.024C86.9057 19.6187 87.983 19.416 89.135 19.416C90.287 19.416 91.3643 19.6187 92.367 20.024C93.3697 20.408 94.2337 20.952 94.959 21.656C95.7057 22.36 96.2817 23.2027 96.687 24.184C97.1137 25.144 97.327 26.2107 97.327 27.384ZM94.191 27.384C94.191 26.6587 94.0737 25.9653 93.839 25.304C93.6257 24.6427 93.3057 24.0667 92.879 23.576C92.4523 23.064 91.919 22.6587 91.279 22.36C90.6603 22.0613 89.9457 21.912 89.135 21.912C88.3243 21.912 87.599 22.0613 86.959 22.36C86.3403 22.6587 85.8177 23.064 85.391 23.576C84.9643 24.0667 84.6337 24.6427 84.399 25.304C84.1857 25.9653 84.079 26.6587 84.079 27.384C84.079 28.1093 84.1857 28.8027 84.399 29.464C84.6337 30.1253 84.9643 30.712 85.391 31.224C85.8177 31.736 86.3403 32.1413 86.959 32.44C87.599 32.7387 88.3243 32.888 89.135 32.888C89.9457 32.888 90.6603 32.7387 91.279 32.44C91.919 32.1413 92.4523 31.736 92.879 31.224C93.3057 30.712 93.6257 30.1253 93.839 29.464C94.0737 28.8027 94.191 28.1093 94.191 27.384ZM104.506 42.68H101.498V19.832H104.442V22.2H104.538C105.029 21.3893 105.744 20.728 106.682 20.216C107.642 19.6827 108.752 19.416 110.01 19.416C111.141 19.416 112.165 19.6187 113.082 20.024C114.021 20.4293 114.821 20.9947 115.482 21.72C116.165 22.4453 116.688 23.2987 117.05 24.28C117.413 25.24 117.594 26.2747 117.594 27.384C117.594 28.4933 117.413 29.5387 117.05 30.52C116.688 31.5013 116.176 32.3547 115.514 33.08C114.853 33.8053 114.053 34.3813 113.114 34.808C112.176 35.2133 111.12 35.416 109.946 35.416C108.858 35.416 107.834 35.1813 106.874 34.712C105.914 34.2427 105.157 33.5813 104.602 32.728H104.506V42.68ZM114.49 27.384C114.49 26.68 114.384 25.9973 114.17 25.336C113.957 24.6747 113.637 24.088 113.21 23.576C112.784 23.064 112.25 22.6587 111.61 22.36C110.992 22.0613 110.266 21.912 109.434 21.912C108.666 21.912 107.962 22.0613 107.322 22.36C106.704 22.6587 106.17 23.064 105.722 23.576C105.274 24.088 104.922 24.6747 104.666 25.336C104.432 25.9973 104.314 26.6907 104.314 27.416C104.314 28.1413 104.432 28.8347 104.666 29.496C104.922 30.1573 105.274 30.744 105.722 31.256C106.17 31.7467 106.704 32.1413 107.322 32.44C107.962 32.7387 108.666 32.888 109.434 32.888C110.266 32.888 110.992 32.7387 111.61 32.44C112.25 32.12 112.784 31.704 113.21 31.192C113.637 30.68 113.957 30.0933 114.17 29.432C114.384 28.7707 114.49 28.088 114.49 27.384Z" fill="black"/>
</svg>